<svg width="39" height="39" viewBox="0 0 39 39" fill="none" xmlns="http://www.w3.org/2000/svg">
<path d="M19.5 0.000334107C14.3283 0.000334107 9.36849 2.05472 5.71135 5.71169C2.05438 9.36866 0 14.3289 0 19.5003C0 24.6718 2.05438 29.6318 5.71135 33.289C9.36832 36.9459 14.3285 39.0003 19.5 39.0003C24.6715 39.0003 29.6315 36.9459 33.2886 33.289C36.9456 29.632 39 24.6718 39 19.5003C39 16.0774 38.099 12.7147 36.3877 9.74992C34.6761 6.78568 32.2142 4.32388 29.2501 2.61231C26.2855 0.900996 22.9227 0 19.4997 0L19.5 0.000334107ZM19.5 35.1008C15.3625 35.1008 11.3945 33.4571 8.46925 30.5314C5.54354 27.606 3.89983 23.638 3.89983 19.5007C3.89983 15.3633 5.54354 11.3951 8.46925 8.46992C11.3946 5.54421 15.3627 3.9005 19.5 3.9005C23.6373 3.9005 27.6055 5.54421 30.5307 8.46992C33.4565 11.3953 35.1002 15.3633 35.1002 19.5007C35.1002 22.239 34.3794 24.9293 33.0098 27.3007C31.6407 29.6724 29.6715 31.6415 27.2998 33.0107C24.9285 34.3802 22.2382 35.101 19.4998 35.101L19.5 35.1008Z" fill="#E69953"/>
<path d="M19.5003 7.8004C18.9832 7.8004 18.487 8.00574 18.1214 8.37169C17.7557 8.73732 17.5504 9.23324 17.5504 9.75031V18.7009L12.2658 23.966C11.8531 24.3192 11.6066 24.8288 11.5854 25.3717C11.5645 25.9146 11.7712 26.4418 12.1554 26.826C12.5393 27.2103 13.0665 27.4166 13.6094 27.3957C14.1523 27.3748 14.6619 27.128 15.0151 26.7154L20.8652 20.8653C21.2328 20.5052 21.443 20.0148 21.4502 19.5004V9.74996C21.4502 9.23285 21.2449 8.73697 20.8792 8.37134C20.5136 8.00539 20.0174 7.80005 19.5003 7.80005L19.5003 7.8004Z" fill="#E69953"/>
</svg>
