<svg width="534" height="155" viewBox="0 0 534 155" fill="none" xmlns="http://www.w3.org/2000/svg">
<path d="M370.487 39.2024C361.012 39.2024 354.163 43.0836 349.825 49.5903L349.482 40.344H334.528V126.986H350.053V92.9684C354.391 99.2468 361.126 103.014 370.487 103.014C387.039 103.014 399.938 90.1146 399.938 70.8228C399.938 51.7593 387.039 39.2024 370.487 39.2024ZM366.948 89.6579C356.788 89.6579 350.053 82.238 350.053 71.0511C350.053 59.8641 356.788 52.4441 366.948 52.4441C376.993 52.4441 383.842 59.8641 383.842 70.9369C383.842 82.238 376.993 89.6579 366.948 89.6579Z" fill="#FD5B41"/>
<path d="M452.562 40.344L452.22 49.5903C447.882 43.0836 441.033 39.2024 431.558 39.2024C414.892 39.2024 402.106 52.1016 402.106 71.3935C402.106 90.3429 414.892 103.014 431.558 103.014C441.033 103.014 447.882 99.1327 452.22 92.6259L452.562 101.872H467.516V40.344H452.562ZM435.097 89.6579C424.937 89.6579 418.202 82.238 418.202 71.1652C418.202 59.9783 424.937 52.4441 435.097 52.4441C445.142 52.4441 451.991 59.9783 451.991 71.0511C451.991 82.238 445.142 89.6579 435.097 89.6579Z" fill="#FD5B41"/>
<path d="M517.972 40.344V76.5304C517.972 84.4069 512.721 89.658 504.845 89.658C496.854 89.658 491.489 84.4069 491.489 76.5304V40.344H475.964V78.9276C475.964 93.425 485.439 103.014 499.365 103.014C506.899 103.014 513.52 100.16 517.972 94.7948V95.9364C517.972 107.352 510.552 114.772 499.594 114.772C491.717 114.772 484.982 112.831 478.818 108.151L475.393 120.365C481.672 125.502 490.233 128.128 499.936 128.128C520.141 128.128 533.497 115.457 533.497 96.0505V40.344H517.972Z" fill="#FD5B41"/>
<path d="M250.624 150.205C249.176 150.205 247.864 149.891 246.688 149.262C245.527 148.62 244.611 147.738 243.941 146.617C243.285 145.497 242.957 144.233 242.957 142.825C242.957 141.417 243.292 140.153 243.962 139.032C244.631 137.912 245.547 137.037 246.709 136.408C247.884 135.766 249.196 135.445 250.645 135.445C251.82 135.445 252.893 135.65 253.863 136.06C254.834 136.47 255.654 137.064 256.323 137.843L254.601 139.463C253.563 138.342 252.285 137.782 250.768 137.782C249.784 137.782 248.902 138.001 248.123 138.438C247.344 138.862 246.736 139.456 246.299 140.221C245.861 140.987 245.643 141.855 245.643 142.825C245.643 143.795 245.861 144.663 246.299 145.428C246.736 146.194 247.344 146.795 248.123 147.232C248.902 147.656 249.784 147.868 250.768 147.868C252.285 147.868 253.563 147.301 254.601 146.166L256.323 147.806C255.654 148.585 254.827 149.18 253.843 149.59C252.872 150 251.8 150.205 250.624 150.205ZM261.07 140.652C261.808 139.504 263.107 138.93 264.965 138.93V141.369C264.747 141.328 264.548 141.308 264.371 141.308C263.373 141.308 262.594 141.602 262.034 142.189C261.473 142.763 261.193 143.597 261.193 144.69V150H258.631V139.053H261.07V140.652ZM277.789 139.053L272.664 150.882C272.186 152.071 271.605 152.904 270.922 153.383C270.239 153.875 269.412 154.121 268.441 154.121C267.895 154.121 267.355 154.032 266.822 153.854C266.289 153.676 265.852 153.43 265.51 153.116L266.535 151.23C266.781 151.462 267.068 151.647 267.396 151.784C267.738 151.92 268.079 151.989 268.421 151.989C268.872 151.989 269.241 151.872 269.528 151.64C269.829 151.408 270.102 151.018 270.348 150.472L270.532 150.041L265.756 139.053H268.421L271.865 147.15L275.329 139.053H277.789ZM285.459 138.93C286.525 138.93 287.475 139.162 288.308 139.627C289.156 140.092 289.819 140.748 290.297 141.595C290.775 142.442 291.014 143.419 291.014 144.526C291.014 145.633 290.775 146.617 290.297 147.478C289.819 148.326 289.156 148.982 288.308 149.446C287.475 149.911 286.525 150.144 285.459 150.144C283.983 150.144 282.814 149.651 281.953 148.667V153.977H279.391V139.053H281.83V140.488C282.254 139.969 282.773 139.579 283.388 139.319C284.017 139.06 284.707 138.93 285.459 138.93ZM285.172 147.95C286.115 147.95 286.887 147.636 287.488 147.007C288.103 146.378 288.411 145.551 288.411 144.526C288.411 143.501 288.103 142.675 287.488 142.046C286.887 141.417 286.115 141.103 285.172 141.103C284.557 141.103 284.003 141.246 283.511 141.533C283.019 141.807 282.63 142.203 282.343 142.722C282.056 143.242 281.912 143.843 281.912 144.526C281.912 145.21 282.056 145.811 282.343 146.33C282.63 146.85 283.019 147.253 283.511 147.54C284.003 147.813 284.557 147.95 285.172 147.95ZM300.025 149.405C299.725 149.651 299.356 149.836 298.918 149.959C298.495 150.082 298.044 150.144 297.565 150.144C296.363 150.144 295.433 149.829 294.777 149.2C294.121 148.572 293.793 147.656 293.793 146.453V141.185H291.989V139.135H293.793V136.634H296.356V139.135H299.287V141.185H296.356V146.392C296.356 146.925 296.486 147.335 296.745 147.622C297.005 147.895 297.381 148.032 297.873 148.032C298.447 148.032 298.925 147.882 299.308 147.581L300.025 149.405ZM306.693 150.144C305.586 150.144 304.588 149.904 303.7 149.426C302.811 148.948 302.114 148.285 301.609 147.438C301.117 146.576 300.871 145.606 300.871 144.526C300.871 143.447 301.117 142.483 301.609 141.636C302.114 140.789 302.811 140.126 303.7 139.648C304.588 139.169 305.586 138.93 306.693 138.93C307.813 138.93 308.818 139.169 309.706 139.648C310.595 140.126 311.285 140.789 311.777 141.636C312.282 142.483 312.535 143.447 312.535 144.526C312.535 145.606 312.282 146.576 311.777 147.438C311.285 148.285 310.595 148.948 309.706 149.426C308.818 149.904 307.813 150.144 306.693 150.144ZM306.693 147.95C307.636 147.95 308.415 147.636 309.03 147.007C309.645 146.378 309.952 145.551 309.952 144.526C309.952 143.501 309.645 142.675 309.03 142.046C308.415 141.417 307.636 141.103 306.693 141.103C305.75 141.103 304.971 141.417 304.356 142.046C303.754 142.675 303.454 143.501 303.454 144.526C303.454 145.551 303.754 146.378 304.356 147.007C304.971 147.636 305.75 147.95 306.693 147.95ZM326.719 138.93C327.785 138.93 328.735 139.162 329.569 139.627C330.416 140.092 331.079 140.748 331.557 141.595C332.036 142.442 332.275 143.419 332.275 144.526C332.275 145.633 332.036 146.617 331.557 147.478C331.079 148.326 330.416 148.982 329.569 149.446C328.735 149.911 327.785 150.144 326.719 150.144C325.243 150.144 324.075 149.651 323.214 148.667V153.977H320.651V139.053H323.091V140.488C323.514 139.969 324.034 139.579 324.649 139.319C325.277 139.06 325.968 138.93 326.719 138.93ZM326.432 147.95C327.375 147.95 328.147 147.636 328.749 147.007C329.364 146.378 329.671 145.551 329.671 144.526C329.671 143.501 329.364 142.675 328.749 142.046C328.147 141.417 327.375 141.103 326.432 141.103C325.817 141.103 325.264 141.246 324.772 141.533C324.28 141.807 323.89 142.203 323.603 142.722C323.316 143.242 323.173 143.843 323.173 144.526C323.173 145.21 323.316 145.811 323.603 146.33C323.89 146.85 324.28 147.253 324.772 147.54C325.264 147.813 325.817 147.95 326.432 147.95ZM338.747 138.93C340.359 138.93 341.589 139.319 342.437 140.098C343.298 140.864 343.728 142.025 343.728 143.583V150H341.309V148.667C340.995 149.146 340.544 149.515 339.956 149.774C339.382 150.02 338.685 150.144 337.865 150.144C337.045 150.144 336.328 150.007 335.713 149.733C335.098 149.446 334.619 149.057 334.278 148.565C333.95 148.059 333.786 147.492 333.786 146.863C333.786 145.879 334.148 145.094 334.872 144.506C335.61 143.905 336.765 143.604 338.337 143.604H341.166V143.44C341.166 142.675 340.933 142.087 340.469 141.677C340.018 141.267 339.341 141.062 338.439 141.062C337.824 141.062 337.216 141.158 336.615 141.349C336.027 141.54 335.528 141.807 335.118 142.148L334.114 140.283C334.688 139.846 335.378 139.511 336.184 139.278C336.991 139.046 337.845 138.93 338.747 138.93ZM338.398 148.278C339.041 148.278 339.608 148.134 340.1 147.847C340.605 147.547 340.961 147.123 341.166 146.576V145.305H338.521C337.045 145.305 336.307 145.791 336.307 146.761C336.307 147.226 336.492 147.595 336.861 147.868C337.23 148.141 337.742 148.278 338.398 148.278ZM357.067 139.053L351.942 150.882C351.463 152.071 350.883 152.904 350.199 153.383C349.516 153.875 348.689 154.121 347.719 154.121C347.172 154.121 346.632 154.032 346.099 153.854C345.566 153.676 345.129 153.43 344.787 153.116L345.812 151.23C346.058 151.462 346.345 151.647 346.673 151.784C347.015 151.92 347.357 151.989 347.698 151.989C348.149 151.989 348.518 151.872 348.805 151.64C349.106 151.408 349.379 151.018 349.625 150.472L349.81 150.041L345.033 139.053H347.698L351.142 147.15L354.607 139.053H357.067ZM372.485 138.93C373.866 138.93 374.959 139.333 375.765 140.139C376.572 140.932 376.975 142.128 376.975 143.727V150H374.412V144.055C374.412 143.098 374.2 142.381 373.777 141.902C373.353 141.41 372.745 141.164 371.952 141.164C371.091 141.164 370.401 141.451 369.882 142.025C369.362 142.586 369.103 143.392 369.103 144.444V150H366.54V144.055C366.54 143.098 366.328 142.381 365.905 141.902C365.481 141.41 364.873 141.164 364.08 141.164C363.206 141.164 362.509 141.445 361.989 142.005C361.484 142.565 361.231 143.378 361.231 144.444V150H358.668V139.053H361.108V140.447C361.518 139.955 362.03 139.579 362.645 139.319C363.26 139.06 363.944 138.93 364.695 138.93C365.515 138.93 366.24 139.087 366.868 139.401C367.511 139.702 368.016 140.153 368.385 140.754C368.836 140.18 369.417 139.736 370.128 139.422C370.838 139.094 371.624 138.93 372.485 138.93ZM390.64 144.588C390.64 144.766 390.627 145.018 390.599 145.346H382.01C382.16 146.153 382.55 146.795 383.178 147.273C383.821 147.738 384.613 147.97 385.556 147.97C386.759 147.97 387.75 147.574 388.529 146.781L389.902 148.36C389.41 148.948 388.789 149.392 388.037 149.692C387.285 149.993 386.438 150.144 385.495 150.144C384.292 150.144 383.233 149.904 382.317 149.426C381.402 148.948 380.691 148.285 380.185 147.438C379.693 146.576 379.447 145.606 379.447 144.526C379.447 143.46 379.687 142.504 380.165 141.656C380.657 140.795 381.333 140.126 382.194 139.648C383.055 139.169 384.026 138.93 385.105 138.93C386.171 138.93 387.121 139.169 387.955 139.648C388.802 140.112 389.458 140.775 389.923 141.636C390.401 142.483 390.64 143.467 390.64 144.588ZM385.105 140.98C384.285 140.98 383.588 141.226 383.014 141.718C382.454 142.196 382.112 142.839 381.989 143.645H388.201C388.092 142.852 387.757 142.21 387.196 141.718C386.636 141.226 385.939 140.98 385.105 140.98ZM399.313 138.93C400.694 138.93 401.801 139.333 402.634 140.139C403.468 140.946 403.885 142.142 403.885 143.727V150H401.322V144.055C401.322 143.098 401.097 142.381 400.646 141.902C400.195 141.41 399.553 141.164 398.719 141.164C397.776 141.164 397.031 141.451 396.484 142.025C395.938 142.586 395.664 143.399 395.664 144.465V150H393.102V139.053H395.541V140.467C395.965 139.962 396.498 139.579 397.14 139.319C397.783 139.06 398.507 138.93 399.313 138.93ZM413.716 149.405C413.415 149.651 413.046 149.836 412.609 149.959C412.185 150.082 411.734 150.144 411.256 150.144C410.053 150.144 409.124 149.829 408.468 149.2C407.812 148.572 407.484 147.656 407.484 146.453V141.185H405.68V139.135H407.484V136.634H410.047V139.135H412.978V141.185H410.047V146.392C410.047 146.925 410.176 147.335 410.436 147.622C410.696 147.895 411.072 148.032 411.564 148.032C412.138 148.032 412.616 147.882 412.999 147.581L413.716 149.405ZM419.207 150.144C418.318 150.144 417.45 150.027 416.603 149.795C415.756 149.563 415.079 149.269 414.574 148.913L415.558 146.966C416.05 147.294 416.637 147.56 417.321 147.765C418.018 147.957 418.701 148.052 419.371 148.052C420.901 148.052 421.667 147.649 421.667 146.843C421.667 146.46 421.468 146.194 421.072 146.043C420.689 145.893 420.068 145.75 419.207 145.613C418.305 145.476 417.567 145.319 416.993 145.141C416.432 144.964 415.94 144.656 415.517 144.219C415.107 143.768 414.902 143.146 414.902 142.353C414.902 141.315 415.332 140.488 416.193 139.873C417.068 139.244 418.243 138.93 419.719 138.93C420.471 138.93 421.222 139.019 421.974 139.196C422.726 139.36 423.341 139.586 423.819 139.873L422.835 141.82C421.906 141.274 420.86 141 419.699 141C418.947 141 418.373 141.117 417.977 141.349C417.594 141.568 417.403 141.861 417.403 142.23C417.403 142.64 417.608 142.934 418.018 143.112C418.441 143.276 419.09 143.433 419.965 143.583C420.84 143.72 421.557 143.877 422.118 144.055C422.678 144.233 423.156 144.533 423.553 144.957C423.963 145.381 424.168 145.982 424.168 146.761C424.168 147.786 423.723 148.606 422.835 149.221C421.947 149.836 420.737 150.144 419.207 150.144ZM449.116 139.053L445.078 150H442.618L439.789 142.456L436.919 150H434.459L430.441 139.053H432.86L435.75 147.13L438.764 139.053H440.916L443.868 147.171L446.841 139.053H449.116ZM450.878 139.053H453.441V150H450.878V139.053ZM452.17 137.249C451.705 137.249 451.316 137.105 451.001 136.818C450.687 136.518 450.53 136.149 450.53 135.711C450.53 135.274 450.687 134.912 451.001 134.625C451.316 134.324 451.705 134.174 452.17 134.174C452.634 134.174 453.024 134.317 453.338 134.604C453.653 134.878 453.81 135.226 453.81 135.65C453.81 136.101 453.653 136.484 453.338 136.798C453.038 137.099 452.648 137.249 452.17 137.249ZM463.385 149.405C463.084 149.651 462.715 149.836 462.278 149.959C461.854 150.082 461.403 150.144 460.925 150.144C459.722 150.144 458.793 149.829 458.137 149.2C457.481 148.572 457.153 147.656 457.153 146.453V141.185H455.349V139.135H457.153V136.634H459.715V139.135H462.647V141.185H459.715V146.392C459.715 146.925 459.845 147.335 460.105 147.622C460.364 147.895 460.74 148.032 461.232 148.032C461.806 148.032 462.284 147.882 462.667 147.581L463.385 149.405ZM471.704 138.93C473.084 138.93 474.191 139.333 475.025 140.139C475.859 140.946 476.276 142.142 476.276 143.727V150H473.713V144.055C473.713 143.098 473.488 142.381 473.037 141.902C472.586 141.41 471.943 141.164 471.11 141.164C470.167 141.164 469.422 141.451 468.875 142.025C468.328 142.586 468.055 143.399 468.055 144.465V150H465.493V134.789H468.055V140.324C468.479 139.873 468.998 139.531 469.613 139.299C470.242 139.053 470.939 138.93 471.704 138.93ZM491.772 149.405C491.472 149.651 491.103 149.836 490.665 149.959C490.242 150.082 489.791 150.144 489.312 150.144C488.11 150.144 487.18 149.829 486.524 149.2C485.868 148.572 485.54 147.656 485.54 146.453V141.185H483.736V139.135H485.54V136.634H488.103V139.135H491.034V141.185H488.103V146.392C488.103 146.925 488.233 147.335 488.492 147.622C488.752 147.895 489.128 148.032 489.62 148.032C490.194 148.032 490.672 147.882 491.055 147.581L491.772 149.405ZM496.32 140.652C497.058 139.504 498.356 138.93 500.215 138.93V141.369C499.996 141.328 499.798 141.308 499.62 141.308C498.623 141.308 497.844 141.602 497.283 142.189C496.723 142.763 496.443 143.597 496.443 144.69V150H493.88V139.053H496.32V140.652ZM513.087 139.053V150H510.648V148.606C510.238 149.098 509.725 149.481 509.11 149.754C508.495 150.014 507.832 150.144 507.122 150.144C505.659 150.144 504.504 149.74 503.657 148.934C502.823 148.114 502.407 146.904 502.407 145.305V139.053H504.969V144.957C504.969 145.941 505.188 146.679 505.625 147.171C506.076 147.649 506.712 147.888 507.532 147.888C508.447 147.888 509.172 147.608 509.705 147.048C510.251 146.474 510.525 145.654 510.525 144.588V139.053H513.087ZM519.825 150.144C518.936 150.144 518.069 150.027 517.221 149.795C516.374 149.563 515.697 149.269 515.192 148.913L516.176 146.966C516.668 147.294 517.255 147.56 517.939 147.765C518.636 147.957 519.319 148.052 519.989 148.052C521.519 148.052 522.285 147.649 522.285 146.843C522.285 146.46 522.087 146.194 521.69 146.043C521.308 145.893 520.686 145.75 519.825 145.613C518.923 145.476 518.185 145.319 517.611 145.141C517.05 144.964 516.558 144.656 516.135 144.219C515.725 143.768 515.52 143.146 515.52 142.353C515.52 141.315 515.95 140.488 516.811 139.873C517.686 139.244 518.861 138.93 520.337 138.93C521.089 138.93 521.841 139.019 522.592 139.196C523.344 139.36 523.959 139.586 524.437 139.873L523.453 141.82C522.524 141.274 521.478 141 520.317 141C519.565 141 518.991 141.117 518.595 141.349C518.212 141.568 518.021 141.861 518.021 142.23C518.021 142.64 518.226 142.934 518.636 143.112C519.059 143.276 519.709 143.433 520.583 143.583C521.458 143.72 522.175 143.877 522.736 144.055C523.296 144.233 523.774 144.533 524.171 144.957C524.581 145.381 524.786 145.982 524.786 146.761C524.786 147.786 524.342 148.606 523.453 149.221C522.565 149.836 521.355 150.144 519.825 150.144ZM533.573 149.405C533.272 149.651 532.903 149.836 532.466 149.959C532.042 150.082 531.591 150.144 531.113 150.144C529.91 150.144 528.981 149.829 528.325 149.2C527.669 148.572 527.341 147.656 527.341 146.453V141.185H525.537V139.135H527.341V136.634H529.904V139.135H532.835V141.185H529.904V146.392C529.904 146.925 530.033 147.335 530.293 147.622C530.553 147.895 530.929 148.032 531.421 148.032C531.995 148.032 532.473 147.882 532.856 147.581L533.573 149.405Z" fill="#523A7E"/>
<path fill-rule="evenodd" clip-rule="evenodd" d="M20.8303 96.2896C23.9744 101.039 29.3583 104.173 35.467 104.173H61.9219L44.5266 110.836C35.7874 114.183 25.9805 109.791 22.64 101.034L20.8303 96.2896ZM93.8655 23.4342L110.613 67.339C113.953 76.096 109.57 85.9232 100.831 89.2702L82.1074 96.4419L93.7605 80.4529C94.1999 79.4788 94.057 78.349 93.3875 77.5075C92.7184 76.666 91.6301 76.2474 90.5501 76.4157C80.6553 77.9563 63.3812 80.5948 54.3066 82.0102C53.6489 82.113 52.9951 81.8074 52.6662 81.2443C52.3377 80.6812 52.4031 79.9786 52.8303 79.4824L89.8966 36.6352C92.4402 33.583 93.971 29.6556 93.971 25.373C93.971 24.7179 93.9351 24.0709 93.8655 23.4342ZM29.9101 15.4076L18.1775 31.5053C17.7382 32.4795 17.8814 33.6092 18.5505 34.4507C19.2197 35.2922 20.3082 35.7109 21.3883 35.5425C31.2831 34.002 48.5052 31.3635 57.5795 29.9481C58.2372 29.8455 58.891 30.1508 59.2198 30.7139C59.5487 31.277 59.4833 31.9796 59.0557 32.4759C59.0557 32.4759 22.0529 75.2434 21.9898 75.323C19.4462 78.3752 17.915 82.3027 17.915 86.5852C17.915 87.4474 17.9771 88.2948 18.0971 89.1251L1.12017 44.6193C-2.22005 35.8622 2.16295 26.035 10.9022 22.688L29.9101 15.4076ZM49.8111 7.78521L67.2068 1.12259C75.9457 -2.22477 85.7529 2.16751 89.0934 10.9242L90.7122 15.1681C87.5283 10.7005 82.3107 7.78521 76.4191 7.78521H49.8111Z" fill="url(#paint0_linear_3400_17647)"/>
<path fill-rule="evenodd" clip-rule="evenodd" d="M300.026 102.179H274.775L254.499 72.389H254.126V102.179H233.602V7.94899H254.126V65.2845H254.499L274.277 40.1068H299.031L275.148 68.151L300.026 102.179ZM302.273 40.1068H322.673V102.179H302.273V40.1068ZM299.943 19.1329C299.943 12.204 305.557 6.5788 312.471 6.5788C319.386 6.5788 325 12.204 325 19.1329C325 26.0615 319.386 31.6868 312.471 31.6868C305.557 31.6868 299.943 26.0615 299.943 19.1329ZM187.781 65.1601V102.001H167.393V65.0638C167.489 48.2225 181.163 38.3618 197.993 38.3618C214.822 38.3618 228.592 46.7848 228.592 65.0447L228.592 102.001H208.204V65.2259C208.204 59.5787 203.629 54.9935 197.993 54.9935C192.379 54.9935 187.817 59.543 187.781 65.1597V65.1601ZM144.76 61.2598C143.031 55.5834 139.381 51.9219 132.074 51.9219C124.405 51.9219 120.782 55.6594 119.159 61.4953C118.92 62.3096 118.758 63.1564 118.681 64.0274H145.31V64.027H145.322C145.296 63.7944 145.266 63.5642 145.231 63.3368C145.13 62.6247 144.972 61.9306 144.76 61.2598ZM161.165 87.3819C155.544 97.5484 143.642 104.173 131.23 104.173C113.037 104.173 98.2671 89.3725 98.2671 71.1427C98.2671 52.9128 113.037 38.1126 131.23 38.1126C149.423 38.1126 164.193 52.9128 164.193 71.1427C164.193 73.0543 164.03 74.9283 163.718 76.7535L118.682 76.7551C119.455 84.0195 123.346 88.8602 132.075 88.8602C137.761 88.8602 140.694 86.6423 143.136 82.9837L161.166 87.3819H161.165Z" fill="#533B7F"/>
<defs>
<linearGradient id="paint0_linear_3400_17647" x1="11.6763" y1="24.4585" x2="99.2311" y2="87.7439" gradientUnits="userSpaceOnUse">
<stop stop-color="#FA01AD"/>
<stop offset="1" stop-color="#FE9301"/>
</linearGradient>
</defs>
</svg>
